<svg width="20" height="20" viewBox="0 0 20 20" fill="none" xmlns="http://www.w3.org/2000/svg">
<g clip-path="url(#clip0_6_3675)">
<path d="M2.5 4.16667C2.5 3.72464 2.67559 3.30072 2.98816 2.98816C3.30072 2.67559 3.72464 2.5 4.16667 2.5H15.8333C16.2754 2.5 16.6993 2.67559 17.0118 2.98816C17.3244 3.30072 17.5 3.72464 17.5 4.16667V15.8333C17.5 16.2754 17.3244 16.6993 17.0118 17.0118C16.6993 17.3244 16.2754 17.5 15.8333 17.5H4.16667C3.72464 17.5 3.30072 17.3244 2.98816 17.0118C2.67559 16.6993 2.5 16.2754 2.5 15.8333V4.16667Z" stroke="black" stroke-width="1.66667" stroke-linecap="round" stroke-linejoin="round"/>
<path d="M7.08341 7.50002C7.31353 7.50002 7.50008 7.31347 7.50008 7.08335C7.50008 6.85324 7.31353 6.66669 7.08341 6.66669C6.8533 6.66669 6.66675 6.85324 6.66675 7.08335C6.66675 7.31347 6.8533 7.50002 7.08341 7.50002Z" fill="black" stroke="black" stroke-width="1.66667" stroke-linecap="round" stroke-linejoin="round"/>
<path d="M12.9167 7.50002C13.1468 7.50002 13.3333 7.31347 13.3333 7.08335C13.3333 6.85324 13.1468 6.66669 12.9167 6.66669C12.6865 6.66669 12.5 6.85324 12.5 7.08335C12.5 7.31347 12.6865 7.50002 12.9167 7.50002Z" fill="black" stroke="black" stroke-width="1.66667" stroke-linecap="round" stroke-linejoin="round"/>
<path d="M12.9167 13.3333C13.1468 13.3333 13.3333 13.1468 13.3333 12.9167C13.3333 12.6865 13.1468 12.5 12.9167 12.5C12.6865 12.5 12.5 12.6865 12.5 12.9167C12.5 13.1468 12.6865 13.3333 12.9167 13.3333Z" fill="black" stroke="black" stroke-width="1.66667" stroke-linecap="round" stroke-linejoin="round"/>
<path d="M7.08341 13.3333C7.31353 13.3333 7.50008 13.1468 7.50008 12.9167C7.50008 12.6865 7.31353 12.5 7.08341 12.5C6.8533 12.5 6.66675 12.6865 6.66675 12.9167C6.66675 13.1468 6.8533 13.3333 7.08341 13.3333Z" fill="black" stroke="black" stroke-width="1.66667" stroke-linecap="round" stroke-linejoin="round"/>
</g>
<defs>
<clipPath id="clip0_6_3675">
<rect width="20" height="20" fill="white"/>
</clipPath>
</defs>
</svg>
